<svg width="82" height="76" viewBox="0 0 82 76" fill="none" xmlns="http://www.w3.org/2000/svg">
<path d="M47.4861 75.5278C42.2589 75.5278 37.128 74.3836 32.0935 72.0952C27.059 69.8309 22.3738 66.6753 18.0378 62.6284C12.0398 57.0398 7.59544 51.1743 4.70482 45.0317C1.83828 38.865 0.405014 32.9995 0.405014 27.435C0.405014 22.3764 1.52513 17.7996 3.76537 13.7046C6.02969 9.60951 9.34186 6.3696 13.7019 3.98483C18.086 1.57598 23.4457 0.371552 29.781 0.371552C33.852 0.371552 37.935 1.02194 42.03 2.32272C46.1251 3.6235 50.0997 5.40606 53.9538 7.67038C57.808 9.9347 61.3852 12.5483 64.6853 15.5112C68.0095 18.4741 70.9122 21.6297 73.3933 24.978C75.8985 28.3022 77.8497 31.6867 79.2468 35.1313C80.6439 38.5519 81.3425 41.8641 81.3425 45.0678C81.3425 47.2358 80.7644 49.187 79.6081 50.9214C78.476 52.6316 76.9464 53.9926 75.0193 55.0044C73.0922 55.992 70.9483 56.4858 68.5876 56.4858C66.6365 56.4858 64.7576 56.1124 62.9509 55.3657C61.1443 54.6189 59.446 53.8361 57.8562 53.0171C56.5313 52.3185 55.2787 51.7163 54.0984 51.2104C52.918 50.7046 51.7979 50.4516 50.738 50.4516C49.9672 50.4516 49.4493 50.6082 49.1843 50.9214C48.9193 51.2345 48.7868 51.6681 48.7868 52.2221C48.7868 53.1134 49.112 53.9204 49.7624 54.643C50.4369 55.3657 51.2921 56.0402 52.3279 56.6665C53.3878 57.2928 54.4958 57.907 55.6521 58.5092C56.9529 59.1596 58.2055 59.8582 59.4099 60.6049C60.6143 61.3517 61.602 62.1827 62.3728 63.0981C63.1677 64.0135 63.5652 65.0734 63.5652 66.2778C63.5652 68.0604 62.8786 69.6502 61.5056 71.0473C60.1326 72.4445 58.2416 73.5405 55.8327 74.3354C53.4239 75.1303 50.6417 75.5278 47.4861 75.5278ZM31.0095 57.353C31.5154 57.353 31.8165 56.9676 31.9128 56.1967C32.0092 55.3296 32.3826 54.7033 33.0329 54.3178C33.2979 54.1492 33.5027 53.9926 33.6472 53.8481C33.7917 53.6795 33.864 53.4747 33.864 53.2339C33.864 53.0171 33.7556 52.8484 33.5388 52.728C33.322 52.5835 33.0089 52.5112 32.5993 52.5112C31.7081 52.5112 30.9854 52.7762 30.4314 53.3061C29.9014 53.812 29.6365 54.4985 29.6365 55.3657C29.6365 55.9197 29.7689 56.3895 30.0339 56.7749C30.2989 57.1603 30.6241 57.353 31.0095 57.353ZM35.7429 62.4477C34.4662 62.4477 33.1654 62.0864 31.8406 61.3637C30.5157 60.6411 29.3956 59.6775 28.4802 58.4731C27.5889 57.2687 27.1433 55.9318 27.1433 54.4624C27.1433 53.0411 27.5769 51.9692 28.4441 51.2466C29.3354 50.5239 30.6602 50.1626 32.4187 50.1626C34.683 50.1626 36.5619 50.8611 38.0554 52.2583C39.573 53.6313 40.3318 55.3536 40.3318 57.4253C40.3318 58.991 39.9223 60.2195 39.1033 61.1108C38.2842 62.0021 37.1641 62.4477 35.7429 62.4477ZM16.0505 40.6596C16.5564 40.6596 16.8575 40.2742 16.9538 39.5034C17.0502 38.6362 17.4236 38.0099 18.074 37.6245C18.3389 37.4559 18.5437 37.2993 18.6882 37.1548C18.8327 36.9861 18.905 36.7814 18.905 36.5405C18.905 36.3237 18.7966 36.1551 18.5798 36.0346C18.363 35.8901 18.0499 35.8178 17.6404 35.8178C16.7491 35.8178 16.0264 36.0828 15.4724 36.6128C14.9424 37.1186 14.6775 37.8051 14.6775 38.6723C14.6775 39.2264 14.81 39.6961 15.0749 40.0815C15.3399 40.4669 15.6651 40.6596 16.0505 40.6596ZM20.8562 46.0073C19.5313 46.0073 18.2064 45.6098 16.8816 44.8149C15.5808 43.9959 14.4968 42.9842 13.6296 41.7798C12.7865 40.5512 12.365 39.3227 12.365 38.0942C12.365 36.8898 12.7986 35.9022 13.6658 35.1313C14.557 34.3364 15.7012 33.9389 17.0984 33.9389C18.4714 33.9389 19.7722 34.3123 21.0007 35.0591C22.2533 35.7817 23.2771 36.7212 24.072 37.8774C24.8669 39.0337 25.2644 40.2381 25.2644 41.4907C25.2644 42.7433 24.8308 43.8152 23.9636 44.7065C23.0964 45.5737 22.0606 46.0073 20.8562 46.0073ZM16.9177 20.8589C17.4236 20.8589 17.7247 20.4734 17.821 19.7026C17.9174 18.8354 18.2908 18.2091 18.9411 17.8237C19.2061 17.6551 19.4109 17.4985 19.5554 17.354C19.6999 17.1854 19.7722 16.9806 19.7722 16.7397C19.7722 16.5229 19.6638 16.3543 19.447 16.2339C19.2302 16.0893 18.9171 16.0171 18.5076 16.0171C17.6163 16.0171 16.8936 16.282 16.3396 16.812C15.8096 17.3178 15.5447 18.0044 15.5447 18.8716C15.5447 19.4256 15.6771 19.8953 15.9421 20.2807C16.2071 20.6661 16.5323 20.8589 16.9177 20.8589ZM20.2419 25.0141C19.182 25.0141 18.1221 24.6769 17.0622 24.0024C16.0264 23.3279 15.1592 22.4848 14.4607 21.4731C13.7621 20.4614 13.4128 19.4617 13.4128 18.4741C13.4128 17.3419 13.8585 16.3663 14.7497 15.5473C15.641 14.7283 16.713 14.3188 17.9656 14.3188C19.1459 14.3188 20.2901 14.5958 21.3982 15.1499C22.5063 15.6798 23.4216 16.3663 24.1443 17.2094C24.8669 18.0525 25.2283 18.9197 25.2283 19.811C25.2283 21.2804 24.7465 22.521 23.7829 23.5327C22.8435 24.5203 21.6632 25.0141 20.2419 25.0141ZM47.4861 72.6372C50.0395 72.6372 52.3038 72.3361 54.279 71.7339C56.2784 71.1557 57.8441 70.3849 58.9763 69.4214C60.1085 68.4578 60.6745 67.41 60.6745 66.2778C60.6745 65.2902 60.0723 64.3989 58.8679 63.604C57.6635 62.8331 56.2663 62.0382 54.6765 61.2192C53.3275 60.5206 51.9665 59.7619 50.5935 58.9428C49.2445 58.1238 48.1244 57.1723 47.2331 56.0883C46.3419 55.0044 45.8962 53.7397 45.8962 52.2944C45.8962 50.8491 46.3178 49.7049 47.1609 48.8618C48.0281 47.9946 49.2204 47.561 50.738 47.561C52.1352 47.561 53.5082 47.8501 54.8572 48.4282C56.2061 49.0063 57.5671 49.6567 58.9402 50.3794C60.4577 51.1743 61.9994 51.909 63.5652 52.5835C65.155 53.2579 66.8292 53.5952 68.5876 53.5952C70.4184 53.5952 72.0805 53.2218 73.574 52.4751C75.0674 51.7283 76.2478 50.7046 77.115 49.4038C78.0063 48.103 78.4519 46.6336 78.4519 44.9956C78.4519 42.0568 77.7774 38.9975 76.4285 35.8178C75.1036 32.6382 73.2488 29.4946 70.864 26.3872C68.5033 23.2557 65.7572 20.3048 62.6257 17.5346C59.4942 14.7645 56.1098 12.3074 52.4724 10.1635C48.835 8.01966 45.0893 6.33347 41.2351 5.10495C37.3809 3.87643 33.5629 3.26218 29.781 3.26218C24.0479 3.26218 19.2061 4.33412 15.2556 6.478C11.3051 8.62188 8.3181 11.5245 6.29466 15.186C4.27122 18.8475 3.25951 22.9666 3.25951 27.5434C3.25951 30.964 3.86172 34.5532 5.06615 38.311C6.29466 42.0447 8.13744 45.8025 10.5945 49.5844C13.0756 53.3423 16.2071 56.9917 19.989 60.5327C24.06 64.3387 28.4441 67.3016 33.1413 69.4214C37.8386 71.5652 42.6202 72.6372 47.4861 72.6372ZM56.1579 44.6704C54.4958 44.6704 52.8699 44.2007 51.28 43.2612C49.7143 42.2977 48.4255 41.0812 47.4138 39.6118C46.4021 38.1424 45.8962 36.6128 45.8962 35.0229C45.8962 33.3849 46.4141 32.06 47.4499 31.0483C48.5098 30.0366 49.8708 29.5307 51.5329 29.5307C53.2191 29.5307 54.8331 30.0125 56.3747 30.976C57.9405 31.9396 59.2292 33.1681 60.241 34.6616C61.2527 36.1551 61.7585 37.7088 61.7585 39.3227C61.7585 40.8885 61.2286 42.1772 60.1687 43.1889C59.1329 44.1766 57.796 44.6704 56.1579 44.6704ZM56.1579 41.7798C57.001 41.7798 57.6635 41.563 58.1452 41.1294C58.627 40.6958 58.8679 40.0936 58.8679 39.3227C58.8679 38.2387 58.4945 37.1668 57.7478 36.1069C57.001 35.047 56.0616 34.1678 54.9294 33.4692C53.8214 32.7706 52.6892 32.4214 51.5329 32.4214C50.6658 32.4214 49.9913 32.6502 49.5095 33.1079C49.0277 33.5415 48.7868 34.1798 48.7868 35.0229C48.7868 36.0587 49.1602 37.1066 49.907 38.1665C50.6537 39.2023 51.5932 40.0695 52.7253 40.768C53.8816 41.4425 55.0258 41.7798 56.1579 41.7798ZM36.7546 17.9321C37.2605 17.9321 37.5616 17.5467 37.6579 16.7758C37.7543 15.9087 38.1277 15.2824 38.7781 14.8969C39.043 14.7283 39.2478 14.5717 39.3923 14.4272C39.5368 14.2586 39.6091 14.0538 39.6091 13.813C39.6091 13.5962 39.5007 13.4275 39.2839 13.3071C39.0671 13.1626 38.754 13.0903 38.3445 13.0903C37.4532 13.0903 36.7305 13.3553 36.1765 13.8852C35.6466 14.3911 35.3816 15.0776 35.3816 15.9448C35.3816 16.4988 35.5141 16.9686 35.779 17.354C36.044 17.7394 36.3692 17.9321 36.7546 17.9321ZM40.2595 21.979C38.9828 21.979 37.7904 21.6899 36.6824 21.1118C35.5743 20.5337 34.683 19.7749 34.0085 18.8354C33.3341 17.896 32.9968 16.8963 32.9968 15.8364C32.9968 14.5838 33.4304 13.5721 34.2976 12.8012C35.1889 12.0304 36.3331 11.645 37.7302 11.645C38.9587 11.645 40.115 11.9581 41.199 12.5844C42.307 13.2107 43.2104 14.0177 43.9089 15.0053C44.6075 15.993 44.9568 17.0288 44.9568 18.1128C44.9568 19.2208 44.5111 20.1482 43.6199 20.895C42.7286 21.6176 41.6085 21.979 40.2595 21.979ZM55.2546 24.9057C55.6641 24.9057 55.9171 24.5685 56.0134 23.894C56.1098 23.1954 56.435 22.6535 56.989 22.268C57.4708 21.9308 57.7117 21.6297 57.7117 21.3647C57.7117 20.9311 57.3503 20.7143 56.6277 20.7143C55.8568 20.7143 55.2305 20.9432 54.7488 21.4008C54.267 21.8585 54.0261 22.4728 54.0261 23.2436C54.0261 23.7013 54.1466 24.0988 54.3874 24.436C54.6283 24.7492 54.9174 24.9057 55.2546 24.9057ZM59.3015 28.8803C58.627 28.8803 58.0248 28.7599 57.4949 28.519C56.9649 28.2781 56.4831 27.9168 56.0495 27.435C55.4473 26.7124 54.7367 26.2306 53.9177 25.9897C53.3396 25.797 52.8578 25.4116 52.4724 24.8335C52.1111 24.2553 51.9304 23.6049 51.9304 22.8823C51.9304 21.8465 52.2676 21.0034 52.9421 20.353C53.6407 19.6785 54.5199 19.3413 55.5798 19.3413C56.5674 19.3413 57.7478 19.6424 59.1208 20.2446C60.253 20.7264 61.1202 21.3527 61.7224 22.1235C62.3487 22.8943 62.6618 23.7495 62.6618 24.6889C62.6618 25.7247 62.3126 26.6883 61.614 27.5796C60.9154 28.4467 60.1446 28.8803 59.3015 28.8803Z" fill="#E3E6FF"/>
</svg>
