<svg width="125" height="92" viewBox="0 0 125 92" fill="none" xmlns="http://www.w3.org/2000/svg">
<path d="M14.8937 77.8426C14.2582 78.0669 13.6602 78.0295 13.0995 77.7305C12.5762 77.4314 12.2398 76.9642 12.0903 76.3288C11.866 75.3569 11.6978 74.2542 11.5856 73.0207C11.4735 71.7499 11.4174 70.3668 11.4174 68.8717C11.4174 67.8998 11.4361 66.928 11.4735 65.9561C11.5109 64.9469 11.6043 64.0311 11.7538 63.2088C11.866 62.5734 12.1463 62.0688 12.5949 61.695C13.0808 61.3212 13.6228 61.1904 14.2208 61.3025C14.7815 61.4146 15.2114 61.7137 15.5104 62.1996C15.8468 62.6481 15.9776 63.1527 15.9029 63.7134C15.7534 64.5358 15.6599 65.3955 15.6225 66.2926C15.6225 67.1523 15.6225 68.012 15.6225 68.8717C15.6225 71.6003 15.8094 73.787 16.1832 75.4317C16.4449 76.6652 16.015 77.4688 14.8937 77.8426ZM34.0129 40.333C33.0784 40.333 32.3495 40.0713 31.8262 39.548C31.3029 39.0247 31.0413 38.2585 31.0413 37.2492V33.9412H27.7893C25.7709 33.9412 24.7617 32.932 24.7617 30.9135C24.7617 28.8577 25.7709 27.8298 27.7893 27.8298H31.0974V24.6339C31.0974 22.5781 32.1253 21.5502 34.1811 21.5502C36.1996 21.5502 37.2088 22.5968 37.2088 24.69V27.9419H40.4047C42.4605 27.9419 43.4884 28.9699 43.4884 31.0257C43.4884 33.0441 42.4605 34.0534 40.4047 34.0534H37.1527V37.3053C37.1527 39.3238 36.1061 40.333 34.0129 40.333ZM52.4033 55.4153C50.2353 55.4153 48.3663 54.6491 46.7964 53.1165C45.2265 51.5466 44.4416 49.6777 44.4416 47.5097C44.4416 45.3044 45.2078 43.4354 46.7404 41.9029C48.3103 40.333 50.1979 39.548 52.4033 39.548C54.6086 39.548 56.4775 40.333 58.0101 41.9029C59.58 43.4354 60.3649 45.3044 60.3649 47.5097C60.3649 49.6777 59.58 51.5466 58.0101 53.1165C56.4402 54.6491 54.5712 55.4153 52.4033 55.4153ZM52.4033 50.9299C53.3377 50.9299 54.1414 50.5935 54.8142 49.9207C55.5244 49.2105 55.8795 48.4068 55.8795 47.5097C55.8795 46.5379 55.5431 45.7155 54.8703 45.0427C54.1974 44.3699 53.3751 44.0335 52.4033 44.0335C51.4314 44.0335 50.6091 44.3699 49.9363 45.0427C49.2634 45.7155 48.927 46.5379 48.927 47.5097C48.927 48.4442 49.2634 49.2478 49.9363 49.9207C50.6465 50.5935 51.4688 50.9299 52.4033 50.9299ZM16.5196 87.4303C18.6502 87.4303 20.4444 87.1686 21.9022 86.6453C23.3973 86.1594 24.7803 85.1501 26.0512 83.6176C27.3221 82.0477 28.7051 79.7115 30.2003 76.6091C31.7328 73.4693 33.583 69.3015 35.751 64.1059C39.4141 63.5826 43.5258 63.1901 48.086 62.9285C52.6836 62.6294 57.4868 62.4799 62.4955 62.4799C67.5043 62.4799 72.2888 62.6294 76.849 62.9285C81.4466 63.1901 85.5769 63.5826 89.24 64.1059C91.4454 69.3015 93.2956 73.4693 94.7908 76.6091C96.2859 79.7115 97.669 82.0477 98.9398 83.6176C100.211 85.1501 101.575 86.1594 103.033 86.6453C104.528 87.1686 106.341 87.4303 108.471 87.4303C112.62 87.4303 115.573 86.3463 117.33 84.1783C119.087 82.0477 119.965 78.478 119.965 73.4693C119.965 69.8809 119.536 65.0404 118.676 58.9476C117.816 52.8175 116.564 46.0706 114.919 38.707C113.723 33.4366 112.284 29.1007 110.602 25.6992C108.957 22.2604 106.864 19.5504 104.322 17.5693C101.781 15.5882 98.6221 14.1305 94.8469 13.196C91.109 12.2615 86.5861 11.6822 81.2784 11.4579C76.008 11.1962 69.747 11.0654 62.4955 11.0654C55.2814 11.0654 49.0205 11.1962 43.7127 11.4579C38.4049 11.6822 33.8634 12.2615 30.0881 13.196C26.3503 14.1305 23.2104 15.5882 20.6687 17.5693C18.1269 19.5504 16.015 22.2604 14.333 25.6992C12.6883 29.1007 11.2679 33.4366 10.0718 38.707C8.42713 46.0706 7.17494 52.8175 6.31523 58.9476C5.45552 65.0404 5.02566 69.8809 5.02566 73.4693C5.02566 78.478 5.90406 82.0477 7.66087 84.1783C9.41767 86.3463 12.3706 87.4303 16.5196 87.4303ZM72.5878 55.4153C70.4198 55.4153 68.5509 54.6491 66.981 53.1165C65.4111 51.5466 64.6261 49.6777 64.6261 47.5097C64.6261 45.3044 65.4111 43.4354 66.981 41.9029C68.5509 40.333 70.4198 39.548 72.5878 39.548C74.7931 39.548 76.6621 40.333 78.1946 41.9029C79.7645 43.4354 80.5495 45.3044 80.5495 47.5097C80.5495 49.6777 79.7645 51.5466 78.1946 53.1165C76.6621 54.6491 74.7931 55.4153 72.5878 55.4153ZM72.5878 50.9299C73.5596 50.9299 74.382 50.5935 75.0548 49.9207C75.7276 49.2478 76.064 48.4442 76.064 47.5097C76.064 46.5379 75.7276 45.7155 75.0548 45.0427C74.382 44.3699 73.5596 44.0335 72.5878 44.0335C71.6533 44.0335 70.831 44.3699 70.1208 45.0427C69.448 45.7155 69.1116 46.5379 69.1116 47.5097C69.1116 48.4068 69.448 49.2105 70.1208 49.9207C70.831 50.5935 71.6533 50.9299 72.5878 50.9299ZM105.668 78.1229C105.182 78.4967 104.621 78.6462 103.986 78.5715C103.388 78.4593 102.921 78.1603 102.584 77.6744C101.388 75.9176 100.267 74.0487 99.2202 72.0676C98.2109 70.0865 97.4634 68.2363 96.9774 66.5168C96.7906 65.8066 96.8279 65.1899 97.0896 64.6666C97.3512 64.1059 97.8185 63.7508 98.4913 63.6013C99.0893 63.4518 99.6126 63.5265 100.061 63.8256C100.51 64.0872 100.809 64.4797 100.958 65.003C101.482 66.7224 102.192 68.5166 103.089 70.3855C104.023 72.2171 104.995 73.8431 106.004 75.2635C106.789 76.3848 106.677 77.338 105.668 78.1229ZM90.6978 42.4636C89.6512 42.4636 88.7541 42.1085 88.0065 41.3983C87.2963 40.6507 86.9412 39.791 86.9412 38.8192C86.9412 37.8099 87.315 36.9315 88.0626 36.184C88.8102 35.4364 89.6886 35.0626 90.6978 35.0626C91.7444 35.0626 92.6228 35.4364 93.333 36.184C94.0432 36.8942 94.3983 37.7726 94.3983 38.8192C94.3983 39.8284 94.0432 40.6881 93.333 41.3983C92.6228 42.1085 91.7444 42.4636 90.6978 42.4636ZM82.8483 34.3337C81.8764 34.3337 81.0167 33.9786 80.2691 33.2684C79.5589 32.5208 79.2038 31.6237 79.2038 30.5771C79.2038 29.6053 79.5589 28.7643 80.2691 28.0541C81.0167 27.3065 81.8764 26.9327 82.8483 26.9327C83.8949 26.9327 84.7733 27.3065 85.4835 28.0541C86.231 28.7643 86.6048 29.6053 86.6048 30.5771C86.6048 31.6237 86.231 32.5208 85.4835 33.2684C84.7733 33.9786 83.8949 34.3337 82.8483 34.3337ZM98.7716 35.1187C97.7998 35.1187 96.9401 34.7449 96.1925 33.9973C95.4449 33.2497 95.0711 32.39 95.0711 31.4182C95.0711 30.4089 95.4262 29.5492 96.1364 28.839C96.884 28.0914 97.7624 27.7177 98.7716 27.7177C99.8182 27.7177 100.697 28.0914 101.407 28.839C102.154 29.5492 102.528 30.4089 102.528 31.4182C102.528 32.4274 102.154 33.3058 101.407 34.0534C100.697 34.7636 99.8182 35.1187 98.7716 35.1187ZM90.9782 26.9327C90.0063 26.9327 89.1466 26.5776 88.399 25.8674C87.6888 25.1198 87.3337 24.2414 87.3337 23.2322C87.3337 22.2604 87.6888 21.4006 88.399 20.6531C89.1466 19.9055 90.0063 19.5317 90.9782 19.5317C91.9874 19.5317 92.8471 19.9055 93.5573 20.6531C94.3049 21.4006 94.6786 22.2604 94.6786 23.2322C94.6786 24.2414 94.3049 25.1198 93.5573 25.8674C92.8471 26.5776 91.9874 26.9327 90.9782 26.9327ZM0.540209 73.4693C0.540209 70.479 0.783171 66.9467 1.2691 62.8724C1.75502 58.7607 2.39046 54.5182 3.17541 50.1449C3.99775 45.7716 4.83877 41.6599 5.69848 37.8099C7.11887 31.5677 8.89437 26.4842 11.025 22.5594C13.1555 18.6346 15.8468 15.5509 19.0988 13.3081C19.5099 9.08434 21.0051 5.90715 23.5842 3.77656C26.2007 1.60859 29.7143 0.524604 34.125 0.524604C36.3304 0.524604 37.9003 1.02922 38.8348 2.03844C39.8066 3.01029 40.4794 4.71103 40.8532 7.14065C43.9557 6.91637 47.2824 6.76686 50.8333 6.6921C54.4217 6.61734 58.3091 6.57997 62.4955 6.57997C66.6819 6.57997 70.5693 6.61734 74.1577 6.6921C77.7461 6.76686 81.0728 6.91637 84.1378 7.14065C84.549 4.71103 85.2218 3.01029 86.1563 2.03844C87.1281 1.02922 88.698 0.524604 90.866 0.524604C95.3141 0.524604 98.8277 1.60859 101.407 3.77656C103.986 5.90715 105.481 9.08434 105.892 13.3081C109.144 15.5509 111.836 18.6346 113.966 22.5594C116.097 26.4842 117.872 31.5677 119.293 37.8099C120.19 41.6599 121.031 45.7716 121.816 50.1449C122.601 54.5182 123.236 58.7607 123.722 62.8724C124.208 66.9467 124.451 70.479 124.451 73.4693C124.451 79.6742 123.143 84.2904 120.526 87.3181C117.91 90.3832 113.891 91.9157 108.471 91.9157C105.444 91.9157 102.902 91.5232 100.846 90.7383C98.8277 89.9533 97.0522 88.6638 95.5197 86.8696C93.9871 85.0754 92.492 82.6458 91.0342 79.5807C89.6138 76.5156 87.9692 72.7217 86.1002 68.1989C82.9978 67.7877 79.4842 67.4887 75.5594 67.3018C71.672 67.0775 67.3174 66.9654 62.4955 66.9654C57.6737 66.9654 53.3003 67.0775 49.3756 67.3018C45.4882 67.4887 41.9933 67.7877 38.8908 68.1989C37.0593 72.7217 35.4146 76.5156 33.9568 79.5807C32.4991 82.6458 31.0039 85.0754 29.4714 86.8696C27.9389 88.6638 26.1447 89.9533 24.0888 90.7383C22.0704 91.5232 19.5473 91.9157 16.5196 91.9157C11.0997 91.9157 7.08149 90.3832 4.46498 87.3181C1.84847 84.2904 0.540209 79.6742 0.540209 73.4693Z" fill="#E3E6FF"/>
</svg>
