<svg width="39" height="30" viewBox="0 0 39 30" fill="none" xmlns="http://www.w3.org/2000/svg">
<path d="M29.0277 29.3348C27.6419 29.3348 26.2988 29.1536 24.9983 28.7911C23.6978 28.4287 22.4132 27.981 21.1447 27.448C19.8869 26.915 18.6237 26.382 17.3551 25.849C16.0973 25.3054 14.8128 24.8523 13.5016 24.4899C12.1904 24.1274 10.8313 23.9462 9.42419 23.9462C8.05973 23.9462 6.61532 24.1221 5.09096 24.4739C3.57725 24.815 2.06888 25.348 0.565839 26.0729V3.78307C2.26076 2.70643 3.88106 1.9549 5.42674 1.52851C6.98308 1.09145 8.41151 0.872927 9.71201 0.872927C11.0978 0.872927 12.4409 1.05414 13.7414 1.41658C15.0419 1.77902 16.3211 2.22673 17.579 2.75972C18.8475 3.29272 20.1107 3.83104 21.3686 4.3747C22.6371 4.90769 23.9269 5.3554 25.2381 5.71784C26.5493 6.08027 27.9084 6.26149 29.3155 6.26149C30.68 6.26149 32.1191 6.0856 33.6328 5.73383C35.1571 5.38205 36.6708 4.84906 38.1739 4.13485V26.4246C36.4789 27.4906 34.8533 28.2421 33.297 28.6792C31.7513 29.1163 30.3282 29.3348 29.0277 29.3348ZM29.0277 28.0556C30.2962 28.0556 31.5701 27.8744 32.8493 27.5119C34.1284 27.1495 35.4769 26.5472 36.8947 25.7051V6.05363C34.3576 7.04499 31.8312 7.54068 29.3155 7.54068C27.8658 7.54068 26.464 7.35946 25.1102 6.99702C23.7564 6.63459 22.4346 6.18687 21.1447 5.65388C19.8549 5.11023 18.581 4.5719 17.3232 4.03891C16.0653 3.50592 14.8074 3.0582 13.5496 2.69577C12.2917 2.33333 11.0125 2.15211 9.71201 2.15211C8.45414 2.15211 7.18029 2.33333 5.89045 2.69577C4.61126 3.0582 3.26279 3.66048 1.84502 4.50261V24.1541C4.38207 23.1627 6.90846 22.667 9.42419 22.667C10.8739 22.667 12.2757 22.8483 13.6295 23.2107C14.9833 23.5731 16.3051 24.0208 17.595 24.5538C18.8848 25.0868 20.1587 25.6252 21.4165 26.1688C22.6744 26.7018 23.9323 27.1495 25.1901 27.5119C26.4587 27.8744 27.7379 28.0556 29.0277 28.0556ZM5.34679 18.4137V6.99702H11.359V8.26022H6.76989V11.8259H11.0871V13.0732H6.76989V17.1506H11.359V18.4137H5.34679ZM13.5975 21.0041V9.58737H15.2605L20.9049 19.0373H20.9688C20.9582 18.7815 20.9369 18.3498 20.9049 17.7422C20.8729 17.1239 20.8569 16.5536 20.8569 16.0313V9.58737H22.1841V21.0041H20.5051L14.8447 11.5221H14.7808C14.8128 11.8952 14.8394 12.3589 14.8607 12.9133C14.8927 13.4676 14.9087 14.0379 14.9087 14.6242V21.0041H13.5975ZM29.2995 24.0422C27.6366 24.0422 26.3627 23.5145 25.478 22.4592C24.6039 21.4038 24.1668 19.9754 24.1668 18.1739C24.1668 16.98 24.3853 15.946 24.8224 15.0719C25.2594 14.1978 25.8937 13.5209 26.7252 13.0412C27.5566 12.5508 28.5587 12.3056 29.7312 12.3056C30.3282 12.3056 30.8932 12.3643 31.4262 12.4815C31.9698 12.5988 32.4708 12.764 32.9292 12.9772L32.4015 14.2244C32.0285 14.0432 31.6021 13.8886 31.1224 13.7607C30.6533 13.6328 30.1683 13.5688 29.6673 13.5688C28.4094 13.5688 27.4234 13.9792 26.7092 14.8001C26.0056 15.6209 25.6538 16.7455 25.6538 18.1739C25.6538 19.5384 25.9577 20.6523 26.5653 21.5158C27.1835 22.3686 28.1962 22.795 29.6033 22.795C30.0617 22.795 30.4508 22.7683 30.7706 22.715C31.0904 22.6617 31.3835 22.5977 31.65 22.5231V19.1333H29.3155V17.8541H33.0731V23.4505C32.4975 23.6531 31.9112 23.8023 31.3142 23.8983C30.7279 23.9942 30.0564 24.0422 29.2995 24.0422Z" fill="#E3E6FF"/>
</svg>
