<svg width="37" height="34" viewBox="0 0 37 34" fill="none" xmlns="http://www.w3.org/2000/svg">
<path d="M0.453328 33.7333V29.8957H36.5903V33.7333H0.453328ZM2.51601 31.4467V0.474462H4.75459V31.4467H2.51601ZM7.40889 27.4812C7.16372 27.4812 6.94519 27.3906 6.75331 27.2094C6.57209 27.0282 6.48148 26.815 6.48148 26.5698V26.266H3.6353V24.9868H6.48148V24.6031C6.48148 24.3579 6.57209 24.1447 6.75331 23.9635C6.94519 23.7716 7.16372 23.6757 7.40889 23.6757C7.65407 23.6757 7.86727 23.7716 8.04849 23.9635C8.2297 24.1447 8.32031 24.3579 8.32031 24.6031V24.9868H8.6561V24.6031C8.6561 24.3579 8.74671 24.1447 8.92792 23.9635C9.10914 23.7716 9.32234 23.6757 9.56752 23.6757C9.82335 23.6757 10.0419 23.7716 10.2231 23.9635C10.415 24.1447 10.5109 24.3579 10.5109 24.6031V24.9868H10.8467V24.6031C10.8467 24.3579 10.9373 24.1447 11.1185 23.9635C11.2997 23.7716 11.5129 23.6757 11.7581 23.6757C12.0033 23.6757 12.2165 23.7716 12.3977 23.9635C12.5789 24.1447 12.6695 24.3579 12.6695 24.6031V24.9868H14.3804V24.6031C14.3804 24.3579 14.4657 24.1447 14.6363 23.9635C14.8175 23.7716 15.0307 23.6757 15.2759 23.6757C15.5317 23.6757 15.7502 23.7716 15.9315 23.9635C16.1127 24.1447 16.2033 24.3579 16.2033 24.6031V24.9868H16.5551V24.6031C16.5551 24.3579 16.6403 24.1447 16.8109 23.9635C16.9921 23.7716 17.2053 23.6757 17.4505 23.6757C17.7063 23.6757 17.9249 23.7716 18.1061 23.9635C18.2873 24.1447 18.3779 24.3579 18.3779 24.6031V24.9868H18.7297V24.6031C18.7297 24.3579 18.815 24.1447 18.9855 23.9635C19.1667 23.7716 19.3799 23.6757 19.6251 23.6757C19.8809 23.6757 20.0995 23.7716 20.2807 23.9635C20.4619 24.1447 20.5525 24.3579 20.5525 24.6031V24.9868H22.2474V24.6031C22.2474 24.3579 22.3327 24.1447 22.5033 23.9635C22.6845 23.7716 22.903 23.6757 23.1589 23.6757C23.4147 23.6757 23.6332 23.7716 23.8144 23.9635C23.9957 24.1447 24.0863 24.3579 24.0863 24.6031V24.9868H24.438V24.6031C24.438 24.3579 24.5286 24.1447 24.7099 23.9635C24.8911 23.7716 25.1043 23.6757 25.3495 23.6757C25.5946 23.6757 25.8078 23.7716 25.989 23.9635C26.1703 24.1447 26.2609 24.3579 26.2609 24.6031V24.9868H26.5967V24.6031C26.5967 24.3579 26.6873 24.1447 26.8685 23.9635C27.0604 23.7716 27.2842 23.6757 27.5401 23.6757C27.7852 23.6757 27.9984 23.7716 28.1796 23.9635C28.3609 24.1447 28.4515 24.3579 28.4515 24.6031V24.9868H28.7873V24.6031C28.7873 24.3579 28.8779 24.1447 29.0591 23.9635C29.251 23.7716 29.4642 23.6757 29.6987 23.6757C29.9439 23.6757 30.1571 23.7716 30.3383 23.9635C30.5302 24.1447 30.6261 24.3579 30.6261 24.6031V24.9868H33.4243V26.266H30.6261V26.5698C30.6261 26.815 30.5355 27.0282 30.3543 27.2094C30.173 27.3906 29.9545 27.4812 29.6987 27.4812C29.4535 27.4812 29.2403 27.3906 29.0591 27.2094C28.8779 27.0282 28.7873 26.815 28.7873 26.5698V26.266H28.4515V26.5698C28.4515 26.815 28.3609 27.0282 28.1796 27.2094C27.9984 27.3906 27.7852 27.4812 27.5401 27.4812C27.2736 27.4812 27.0497 27.3906 26.8685 27.2094C26.6873 27.0282 26.5967 26.815 26.5967 26.5698V26.266H26.2609V26.5698C26.2609 26.815 26.1703 27.0282 25.989 27.2094C25.8078 27.3906 25.5946 27.4812 25.3495 27.4812C25.0936 27.4812 24.8751 27.3906 24.6939 27.2094C24.5233 27.0282 24.438 26.815 24.438 26.5698V26.266H24.0863V26.5698C24.0863 26.815 23.9957 27.0282 23.8144 27.2094C23.6332 27.3906 23.4147 27.4812 23.1589 27.4812C22.903 27.4812 22.6845 27.3906 22.5033 27.2094C22.3327 27.0282 22.2474 26.815 22.2474 26.5698V26.266H20.5525V26.5698C20.5525 26.815 20.4619 27.0282 20.2807 27.2094C20.0995 27.3906 19.8809 27.4812 19.6251 27.4812C19.3799 27.4812 19.1667 27.3906 18.9855 27.2094C18.815 27.0282 18.7297 26.815 18.7297 26.5698V26.266H18.3779V26.5698C18.3779 26.815 18.2873 27.0282 18.1061 27.2094C17.9249 27.3906 17.7063 27.4812 17.4505 27.4812C17.2053 27.4812 16.9921 27.3906 16.8109 27.2094C16.6403 27.0282 16.5551 26.815 16.5551 26.5698V26.266H16.2033V26.5698C16.2033 26.815 16.1127 27.0282 15.9315 27.2094C15.7502 27.3906 15.5317 27.4812 15.2759 27.4812C15.0307 27.4812 14.8175 27.3906 14.6363 27.2094C14.4657 27.0282 14.3804 26.815 14.3804 26.5698V26.266H12.6695V26.5698C12.6695 26.815 12.5789 27.0282 12.3977 27.2094C12.2272 27.3906 12.014 27.4812 11.7581 27.4812C11.5129 27.4812 11.2997 27.3906 11.1185 27.2094C10.9373 27.0282 10.8467 26.815 10.8467 26.5698V26.266H10.5109V26.5698C10.5109 26.815 10.4203 27.0282 10.2391 27.2094C10.0579 27.3906 9.83401 27.4812 9.56752 27.4812C9.32234 27.4812 9.10914 27.3906 8.92792 27.2094C8.74671 27.0282 8.6561 26.815 8.6561 26.5698V26.266H8.32031V26.5698C8.32031 26.815 8.2297 27.0282 8.04849 27.2094C7.86727 27.3906 7.65407 27.4812 7.40889 27.4812ZM7.40889 22.4604C7.16372 22.4604 6.94519 22.3698 6.75331 22.1886C6.57209 22.0074 6.48148 21.7942 6.48148 21.549V21.2452H3.6353V19.966H6.48148V19.5823C6.48148 19.3371 6.57209 19.1239 6.75331 18.9427C6.94519 18.7508 7.16372 18.6549 7.40889 18.6549C7.65407 18.6549 7.86727 18.7508 8.04849 18.9427C8.2297 19.1239 8.32031 19.3371 8.32031 19.5823V19.966H8.6561V19.5823C8.6561 19.3371 8.74671 19.1239 8.92792 18.9427C9.10914 18.7508 9.32234 18.6549 9.56752 18.6549C9.82335 18.6549 10.0419 18.7508 10.2231 18.9427C10.415 19.1239 10.5109 19.3371 10.5109 19.5823V19.966H10.8467V19.5823C10.8467 19.3371 10.9373 19.1239 11.1185 18.9427C11.2997 18.7508 11.5129 18.6549 11.7581 18.6549C12.0033 18.6549 12.2165 18.7508 12.3977 18.9427C12.5789 19.1239 12.6695 19.3371 12.6695 19.5823V19.966H13.0213V19.5823C13.0213 19.3371 13.1119 19.1239 13.2931 18.9427C13.4744 18.7508 13.6929 18.6549 13.9487 18.6549C14.2046 18.6549 14.4178 18.7508 14.5883 18.9427C14.7695 19.1239 14.8601 19.3371 14.8601 19.5823V19.966H17.8822V19.5823C17.8822 19.3371 17.9728 19.1239 18.154 18.9427C18.3353 18.7508 18.5538 18.6549 18.8096 18.6549C19.0548 18.6549 19.2627 18.7508 19.4332 18.9427C19.6144 19.1239 19.7051 19.3371 19.7051 19.5823V19.966H20.0728V19.5823C20.0728 19.3371 20.1634 19.1239 20.3446 18.9427C20.5259 18.7508 20.7444 18.6549 21.0002 18.6549C21.2454 18.6549 21.4533 18.7508 21.6238 18.9427C21.805 19.1239 21.8957 19.3371 21.8957 19.5823V19.966H22.2474V19.5823C22.2474 19.3371 22.3327 19.1239 22.5033 18.9427C22.6845 18.7508 22.903 18.6549 23.1589 18.6549C23.4147 18.6549 23.6332 18.7508 23.8144 18.9427C23.9957 19.1239 24.0863 19.3371 24.0863 19.5823V19.966H24.438V19.5823C24.438 19.3371 24.5286 19.1239 24.7099 18.9427C24.8911 18.7508 25.1043 18.6549 25.3495 18.6549C25.5946 18.6549 25.8078 18.7508 25.989 18.9427C26.1703 19.1239 26.2609 19.3371 26.2609 19.5823V19.966H26.5967V19.5823C26.5967 19.3371 26.6873 19.1239 26.8685 18.9427C27.0604 18.7508 27.2842 18.6549 27.5401 18.6549C27.7852 18.6549 27.9984 18.7508 28.1796 18.9427C28.3609 19.1239 28.4515 19.3371 28.4515 19.5823V19.966H28.7873V19.5823C28.7873 19.3371 28.8779 19.1239 29.0591 18.9427C29.251 18.7508 29.4642 18.6549 29.6987 18.6549C29.9439 18.6549 30.1571 18.7508 30.3383 18.9427C30.5302 19.1239 30.6261 19.3371 30.6261 19.5823V19.966H33.4243V21.2452H30.6261V21.549C30.6261 21.7942 30.5302 22.0074 30.3383 22.1886C30.1571 22.3698 29.9439 22.4604 29.6987 22.4604C29.4535 22.4604 29.2403 22.3698 29.0591 22.1886C28.8779 22.0074 28.7873 21.7942 28.7873 21.549V21.2452H28.4515V21.549C28.4515 21.7942 28.3609 22.0074 28.1796 22.1886C27.9984 22.3698 27.7852 22.4604 27.5401 22.4604C27.2736 22.4604 27.0497 22.3698 26.8685 22.1886C26.6873 22.0074 26.5967 21.7942 26.5967 21.549V21.2452H26.2609V21.549C26.2609 21.7942 26.1703 22.0074 25.989 22.1886C25.8078 22.3698 25.5946 22.4604 25.3495 22.4604C25.0936 22.4604 24.8751 22.3698 24.6939 22.1886C24.5233 22.0074 24.438 21.7942 24.438 21.549V21.2452H24.0863V21.549C24.0863 21.7942 23.9957 22.0074 23.8144 22.1886C23.6332 22.3698 23.4147 22.4604 23.1589 22.4604C22.903 22.4604 22.6845 22.3698 22.5033 22.1886C22.3327 22.0074 22.2474 21.7942 22.2474 21.549V21.2452H21.8957V21.549C21.8957 21.7942 21.805 22.0074 21.6238 22.1886C21.4533 22.3698 21.2454 22.4604 21.0002 22.4604C20.7444 22.4604 20.5259 22.3698 20.3446 22.1886C20.1634 22.0074 20.0728 21.7942 20.0728 21.549V21.2452H19.7051V21.549C19.7051 21.7942 19.6144 22.0074 19.4332 22.1886C19.2627 22.3698 19.0548 22.4604 18.8096 22.4604C18.5538 22.4604 18.3353 22.3698 18.154 22.1886C17.9728 22.0074 17.8822 21.7942 17.8822 21.549V21.2452H14.8601V21.549C14.8601 21.7942 14.7695 22.0074 14.5883 22.1886C14.4178 22.3698 14.2046 22.4604 13.9487 22.4604C13.6929 22.4604 13.4744 22.3698 13.2931 22.1886C13.1119 22.0074 13.0213 21.7942 13.0213 21.549V21.2452H12.6695V21.549C12.6695 21.7942 12.5789 22.0074 12.3977 22.1886C12.2272 22.3698 12.014 22.4604 11.7581 22.4604C11.5129 22.4604 11.2997 22.3698 11.1185 22.1886C10.9373 22.0074 10.8467 21.7942 10.8467 21.549V21.2452H10.5109V21.549C10.5109 21.7942 10.4203 22.0074 10.2391 22.1886C10.0579 22.3698 9.83401 22.4604 9.56752 22.4604C9.32234 22.4604 9.10914 22.3698 8.92792 22.1886C8.74671 22.0074 8.6561 21.7942 8.6561 21.549V21.2452H8.32031V21.549C8.32031 21.7942 8.2297 22.0074 8.04849 22.1886C7.86727 22.3698 7.65407 22.4604 7.40889 22.4604ZM7.40889 17.4396C7.16372 17.4396 6.94519 17.349 6.75331 17.1678C6.57209 16.9866 6.48148 16.7734 6.48148 16.5282V16.2244H3.6353V14.9452H6.48148V14.5615C6.48148 14.3163 6.57209 14.1031 6.75331 13.9219C6.94519 13.73 7.16372 13.6341 7.40889 13.6341C7.65407 13.6341 7.86727 13.73 8.04849 13.9219C8.2297 14.1031 8.32031 14.3163 8.32031 14.5615V14.9452H8.6561V14.5615C8.6561 14.3163 8.74671 14.1031 8.92792 13.9219C9.10914 13.73 9.32234 13.6341 9.56752 13.6341C9.82335 13.6341 10.0419 13.73 10.2231 13.9219C10.415 14.1031 10.5109 14.3163 10.5109 14.5615V14.9452H10.8467V14.5615C10.8467 14.3163 10.9373 14.1031 11.1185 13.9219C11.2997 13.73 11.5129 13.6341 11.7581 13.6341C12.0033 13.6341 12.2165 13.73 12.3977 13.9219C12.5789 14.1031 12.6695 14.3163 12.6695 14.5615V14.9452H13.0213V14.5615C13.0213 14.3163 13.1119 14.1031 13.2931 13.9219C13.4744 13.73 13.6929 13.6341 13.9487 13.6341C14.2046 13.6341 14.4178 13.73 14.5883 13.9219C14.7695 14.1031 14.8601 14.3163 14.8601 14.5615V14.9452H15.2119V14.5615C15.2119 14.3163 15.2972 14.1031 15.4678 13.9219C15.649 13.73 15.8622 13.6341 16.1073 13.6341C16.3632 13.6341 16.5817 13.73 16.7629 13.9219C16.9441 14.1031 17.0348 14.3163 17.0348 14.5615V14.9452H17.3865V14.5615C17.3865 14.3163 17.4718 14.1031 17.6424 13.9219C17.8236 13.73 18.0368 13.6341 18.282 13.6341C18.5378 13.6341 18.7563 13.73 18.9375 13.9219C19.1188 14.1031 19.2094 14.3163 19.2094 14.5615V14.9452H19.5611V14.5615C19.5611 14.3163 19.6464 14.1031 19.817 13.9219C19.9982 13.73 20.2114 13.6341 20.4566 13.6341C20.7124 13.6341 20.9309 13.73 21.1122 13.9219C21.2934 14.1031 21.384 14.3163 21.384 14.5615V14.9452H21.7358V14.5615C21.7358 14.3163 21.8264 14.1031 22.0076 13.9219C22.1995 13.73 22.4233 13.6341 22.6792 13.6341C22.9243 13.6341 23.1375 13.73 23.3187 13.9219C23.5 14.1031 23.5906 14.3163 23.5906 14.5615V14.9452H23.9424V14.5615C23.9424 14.3163 24.033 14.1031 24.2142 13.9219C24.4061 13.73 24.6299 13.6341 24.8857 13.6341C25.1309 13.6341 25.3441 13.73 25.5253 13.9219C25.7066 14.1031 25.7972 14.3163 25.7972 14.5615V14.9452H28.7873V14.5615C28.7873 14.3163 28.8779 14.1031 29.0591 13.9219C29.251 13.73 29.4642 13.6341 29.6987 13.6341C29.9439 13.6341 30.1571 13.73 30.3383 13.9219C30.5302 14.1031 30.6261 14.3163 30.6261 14.5615V14.9452H33.4243V16.2244H30.6261V16.5282C30.6261 16.7734 30.5302 16.9866 30.3383 17.1678C30.1571 17.349 29.9439 17.4396 29.6987 17.4396C29.4535 17.4396 29.2403 17.349 29.0591 17.1678C28.8779 16.9866 28.7873 16.7734 28.7873 16.5282V16.2244H25.7972V16.5282C25.7972 16.7734 25.7066 16.9866 25.5253 17.1678C25.3441 17.349 25.1309 17.4396 24.8857 17.4396C24.6193 17.4396 24.3954 17.349 24.2142 17.1678C24.033 16.9866 23.9424 16.7734 23.9424 16.5282V16.2244H23.5906V16.5282C23.5906 16.7734 23.5 16.9866 23.3187 17.1678C23.1375 17.349 22.9243 17.4396 22.6792 17.4396C22.4127 17.4396 22.1888 17.349 22.0076 17.1678C21.8264 16.9866 21.7358 16.7734 21.7358 16.5282V16.2244H21.384V16.5282C21.384 16.7734 21.2934 16.9866 21.1122 17.1678C20.9309 17.349 20.7124 17.4396 20.4566 17.4396C20.2114 17.4396 19.9982 17.349 19.817 17.1678C19.6464 16.9866 19.5611 16.7734 19.5611 16.5282V16.2244H19.2094V16.5282C19.2094 16.7734 19.1188 16.9866 18.9375 17.1678C18.7563 17.349 18.5378 17.4396 18.282 17.4396C18.0368 17.4396 17.8236 17.349 17.6424 17.1678C17.4718 16.9866 17.3865 16.7734 17.3865 16.5282V16.2244H17.0348V16.5282C17.0348 16.7734 16.9441 16.9866 16.7629 17.1678C16.5817 17.349 16.3632 17.4396 16.1073 17.4396C15.8622 17.4396 15.649 17.349 15.4678 17.1678C15.2972 16.9866 15.2119 16.7734 15.2119 16.5282V16.2244H14.8601V16.5282C14.8601 16.7734 14.7695 16.9866 14.5883 17.1678C14.4178 17.349 14.2046 17.4396 13.9487 17.4396C13.6929 17.4396 13.4744 17.349 13.2931 17.1678C13.1119 16.9866 13.0213 16.7734 13.0213 16.5282V16.2244H12.6695V16.5282C12.6695 16.7734 12.5789 16.9866 12.3977 17.1678C12.2272 17.349 12.014 17.4396 11.7581 17.4396C11.5129 17.4396 11.2997 17.349 11.1185 17.1678C10.9373 16.9866 10.8467 16.7734 10.8467 16.5282V16.2244H10.5109V16.5282C10.5109 16.7734 10.4203 16.9866 10.2391 17.1678C10.0579 17.349 9.83401 17.4396 9.56752 17.4396C9.32234 17.4396 9.10914 17.349 8.92792 17.1678C8.74671 16.9866 8.6561 16.7734 8.6561 16.5282V16.2244H8.32031V16.5282C8.32031 16.7734 8.2297 16.9866 8.04849 17.1678C7.86727 17.349 7.65407 17.4396 7.40889 17.4396ZM7.40889 12.4188C7.16372 12.4188 6.94519 12.3282 6.75331 12.147C6.57209 11.9658 6.48148 11.7526 6.48148 11.5074V11.2036H3.6353V9.92444H6.48148V9.54068C6.48148 9.2955 6.57209 9.08231 6.75331 8.90109C6.94519 8.70921 7.16372 8.61327 7.40889 8.61327C7.65407 8.61327 7.86727 8.70921 8.04849 8.90109C8.2297 9.08231 8.32031 9.2955 8.32031 9.54068V9.92444H8.6561V9.54068C8.6561 9.2955 8.74671 9.08231 8.92792 8.90109C9.10914 8.70921 9.32234 8.61327 9.56752 8.61327C9.82335 8.61327 10.0419 8.70921 10.2231 8.90109C10.415 9.08231 10.5109 9.2955 10.5109 9.54068V9.92444H11.7102V9.54068C11.7102 9.2955 11.8008 9.08231 11.982 8.90109C12.1632 8.70921 12.3764 8.61327 12.6216 8.61327C12.8774 8.61327 13.0959 8.70921 13.2772 8.90109C13.469 9.08231 13.565 9.2955 13.565 9.54068V9.92444H15.7236V9.54068C15.7236 9.2955 15.8142 9.08231 15.9954 8.90109C16.1766 8.70921 16.3952 8.61327 16.651 8.61327C16.8962 8.61327 17.104 8.70921 17.2746 8.90109C17.4558 9.08231 17.5464 9.2955 17.5464 9.54068V9.92444H17.8982V9.54068C17.8982 9.2955 17.9888 9.08231 18.17 8.90109C18.3512 8.70921 18.5698 8.61327 18.8256 8.61327C19.0708 8.61327 19.2787 8.70921 19.4492 8.90109C19.6304 9.08231 19.721 9.2955 19.721 9.54068V9.92444H20.0728V9.54068C20.0728 9.2955 20.1634 9.08231 20.3446 8.90109C20.5259 8.70921 20.7444 8.61327 21.0002 8.61327C21.2454 8.61327 21.4533 8.70921 21.6238 8.90109C21.805 9.08231 21.8957 9.2955 21.8957 9.54068V9.92444H22.2474V9.54068C22.2474 9.2955 22.3327 9.08231 22.5033 8.90109C22.6845 8.70921 22.903 8.61327 23.1589 8.61327C23.4147 8.61327 23.6332 8.70921 23.8144 8.90109C23.9957 9.08231 24.0863 9.2955 24.0863 9.54068V9.92444H24.438V9.54068C24.438 9.2955 24.5286 9.08231 24.7099 8.90109C24.8911 8.70921 25.1043 8.61327 25.3495 8.61327C25.5946 8.61327 25.8078 8.70921 25.989 8.90109C26.1703 9.08231 26.2609 9.2955 26.2609 9.54068V9.92444H26.5967V9.54068C26.5967 9.2955 26.6873 9.08231 26.8685 8.90109C27.0604 8.70921 27.2842 8.61327 27.5401 8.61327C27.7852 8.61327 27.9984 8.70921 28.1796 8.90109C28.3609 9.08231 28.4515 9.2955 28.4515 9.54068V9.92444H28.7873V9.54068C28.7873 9.2955 28.8779 9.08231 29.0591 8.90109C29.251 8.70921 29.4642 8.61327 29.6987 8.61327C29.9439 8.61327 30.1571 8.70921 30.3383 8.90109C30.5302 9.08231 30.6261 9.2955 30.6261 9.54068V9.92444H33.4243V11.2036H30.6261V11.5074C30.6261 11.7526 30.5302 11.9658 30.3383 12.147C30.1571 12.3282 29.9439 12.4188 29.6987 12.4188C29.4535 12.4188 29.2403 12.3282 29.0591 12.147C28.8779 11.9658 28.7873 11.7526 28.7873 11.5074V11.2036H28.4515V11.5074C28.4515 11.7526 28.3609 11.9658 28.1796 12.147C27.9984 12.3282 27.7852 12.4188 27.5401 12.4188C27.2736 12.4188 27.0497 12.3282 26.8685 12.147C26.6873 11.9658 26.5967 11.7526 26.5967 11.5074V11.2036H26.2609V11.5074C26.2609 11.7526 26.1703 11.9658 25.989 12.147C25.8078 12.3282 25.5946 12.4188 25.3495 12.4188C25.0936 12.4188 24.8751 12.3282 24.6939 12.147C24.5233 11.9658 24.438 11.7526 24.438 11.5074V11.2036H24.0863V11.5074C24.0863 11.7526 23.9957 11.9658 23.8144 12.147C23.6332 12.3282 23.4147 12.4188 23.1589 12.4188C22.903 12.4188 22.6845 12.3282 22.5033 12.147C22.3327 11.9658 22.2474 11.7526 22.2474 11.5074V11.2036H21.8957V11.5074C21.8957 11.7526 21.805 11.9658 21.6238 12.147C21.4533 12.3282 21.2454 12.4188 21.0002 12.4188C20.7444 12.4188 20.5259 12.3282 20.3446 12.147C20.1634 11.9658 20.0728 11.7526 20.0728 11.5074V11.2036H19.721V11.5074C19.721 11.7526 19.6304 11.9658 19.4492 12.147C19.2787 12.3282 19.0708 12.4188 18.8256 12.4188C18.5698 12.4188 18.3512 12.3282 18.17 12.147C17.9888 11.9658 17.8982 11.7526 17.8982 11.5074V11.2036H17.5464V11.5074C17.5464 11.7526 17.4558 11.9658 17.2746 12.147C17.104 12.3282 16.8962 12.4188 16.651 12.4188C16.3952 12.4188 16.1766 12.3282 15.9954 12.147C15.8142 11.9658 15.7236 11.7526 15.7236 11.5074V11.2036H13.565V11.5074C13.565 11.7526 13.4744 11.9658 13.2931 12.147C13.1119 12.3282 12.8881 12.4188 12.6216 12.4188C12.3764 12.4188 12.1632 12.3282 11.982 12.147C11.8008 11.9658 11.7102 11.7526 11.7102 11.5074V11.2036H10.5109V11.5074C10.5109 11.7526 10.4203 11.9658 10.2391 12.147C10.0579 12.3282 9.83401 12.4188 9.56752 12.4188C9.32234 12.4188 9.10914 12.3282 8.92792 12.147C8.74671 11.9658 8.6561 11.7526 8.6561 11.5074V11.2036H8.32031V11.5074C8.32031 11.7526 8.2297 11.9658 8.04849 12.147C7.86727 12.3282 7.65407 12.4188 7.40889 12.4188ZM7.40889 7.39805C7.16372 7.39805 6.94519 7.30744 6.75331 7.12622C6.57209 6.945 6.48148 6.73181 6.48148 6.48663V6.18282H3.6353V4.90364H6.48148V4.51988C6.48148 4.27471 6.57209 4.06151 6.75331 3.88029C6.94519 3.68841 7.16372 3.59247 7.40889 3.59247C7.65407 3.59247 7.86727 3.68841 8.04849 3.88029C8.2297 4.06151 8.32031 4.27471 8.32031 4.51988V4.90364H8.6561V4.51988C8.6561 4.27471 8.74671 4.06151 8.92792 3.88029C9.10914 3.68841 9.32234 3.59247 9.56752 3.59247C9.82335 3.59247 10.0419 3.68841 10.2231 3.88029C10.415 4.06151 10.5109 4.27471 10.5109 4.51988V4.90364H10.8467V4.51988C10.8467 4.27471 10.9373 4.06151 11.1185 3.88029C11.2997 3.68841 11.5129 3.59247 11.7581 3.59247C12.0033 3.59247 12.2165 3.68841 12.3977 3.88029C12.5789 4.06151 12.6695 4.27471 12.6695 4.51988V4.90364H13.0213V4.51988C13.0213 4.27471 13.1119 4.06151 13.2931 3.88029C13.4744 3.68841 13.6929 3.59247 13.9487 3.59247C14.2046 3.59247 14.4178 3.68841 14.5883 3.88029C14.7695 4.06151 14.8601 4.27471 14.8601 4.51988V4.90364H15.2119V4.51988C15.2119 4.27471 15.2972 4.06151 15.4678 3.88029C15.649 3.68841 15.8622 3.59247 16.1073 3.59247C16.3632 3.59247 16.5817 3.68841 16.7629 3.88029C16.9441 4.06151 17.0348 4.27471 17.0348 4.51988V4.90364H18.6497V4.51988C18.6497 4.27471 18.7403 4.06151 18.9216 3.88029C19.1028 3.68841 19.3213 3.59247 19.5771 3.59247C19.833 3.59247 20.0462 3.68841 20.2167 3.88029C20.3979 4.06151 20.4886 4.27471 20.4886 4.51988V4.90364H20.8403V4.51988C20.8403 4.27471 20.9256 4.06151 21.0962 3.88029C21.2774 3.68841 21.4959 3.59247 21.7517 3.59247C21.9969 3.59247 22.2101 3.68841 22.3913 3.88029C22.5726 4.06151 22.6632 4.27471 22.6632 4.51988V4.90364H24.3741V4.51988C24.3741 4.27471 24.4594 4.06151 24.6299 3.88029C24.8111 3.68841 25.0297 3.59247 25.2855 3.59247C25.5307 3.59247 25.7439 3.68841 25.9251 3.88029C26.1063 4.06151 26.1969 4.27471 26.1969 4.51988V4.90364H26.5327V4.51988C26.5327 4.27471 26.6233 4.06151 26.8045 3.88029C26.9857 3.68841 27.2096 3.59247 27.4761 3.59247C27.7213 3.59247 27.9345 3.68841 28.1157 3.88029C28.2969 4.06151 28.3875 4.27471 28.3875 4.51988V4.90364H28.7233V4.51988C28.7233 4.27471 28.8086 4.06151 28.9791 3.88029C29.1604 3.68841 29.3789 3.59247 29.6347 3.59247C29.8799 3.59247 30.0931 3.68841 30.2743 3.88029C30.4662 4.06151 30.5621 4.27471 30.5621 4.51988V4.90364H33.4243V6.18282H30.5621V6.48663C30.5621 6.73181 30.4662 6.945 30.2743 7.12622C30.0931 7.30744 29.8799 7.39805 29.6347 7.39805C29.3789 7.39805 29.1604 7.30744 28.9791 7.12622C28.8086 6.945 28.7233 6.73181 28.7233 6.48663V6.18282H28.3875V6.48663C28.3875 6.73181 28.2969 6.945 28.1157 7.12622C27.9345 7.30744 27.7213 7.39805 27.4761 7.39805C27.2096 7.39805 26.9857 7.30744 26.8045 7.12622C26.6233 6.945 26.5327 6.73181 26.5327 6.48663V6.18282H26.1969V6.48663C26.1969 6.73181 26.1063 6.945 25.9251 7.12622C25.7439 7.30744 25.5307 7.39805 25.2855 7.39805C25.0297 7.39805 24.8111 7.30744 24.6299 7.12622C24.4594 6.945 24.3741 6.73181 24.3741 6.48663V6.18282H22.6632V6.48663C22.6632 6.73181 22.5726 6.945 22.3913 7.12622C22.2101 7.30744 21.9969 7.39805 21.7517 7.39805C21.4959 7.39805 21.2774 7.30744 21.0962 7.12622C20.9256 6.945 20.8403 6.73181 20.8403 6.48663V6.18282H20.4886V6.48663C20.4886 6.73181 20.3979 6.945 20.2167 7.12622C20.0462 7.30744 19.833 7.39805 19.5771 7.39805C19.3213 7.39805 19.1028 7.30744 18.9216 7.12622C18.7403 6.945 18.6497 6.73181 18.6497 6.48663V6.18282H17.0348V6.48663C17.0348 6.73181 16.9441 6.945 16.7629 7.12622C16.5817 7.30744 16.3632 7.39805 16.1073 7.39805C15.8622 7.39805 15.649 7.30744 15.4678 7.12622C15.2972 6.945 15.2119 6.73181 15.2119 6.48663V6.18282H14.8601V6.48663C14.8601 6.73181 14.7695 6.945 14.5883 7.12622C14.4178 7.30744 14.2046 7.39805 13.9487 7.39805C13.6929 7.39805 13.4744 7.30744 13.2931 7.12622C13.1119 6.945 13.0213 6.73181 13.0213 6.48663V6.18282H12.6695V6.48663C12.6695 6.73181 12.5789 6.945 12.3977 7.12622C12.2272 7.30744 12.014 7.39805 11.7581 7.39805C11.5129 7.39805 11.2997 7.30744 11.1185 7.12622C10.9373 6.945 10.8467 6.73181 10.8467 6.48663V6.18282H10.5109V6.48663C10.5109 6.73181 10.4203 6.945 10.2391 7.12622C10.0579 7.30744 9.83401 7.39805 9.56752 7.39805C9.32234 7.39805 9.10914 7.30744 8.92792 7.12622C8.74671 6.945 8.6561 6.73181 8.6561 6.48663V6.18282H8.32031V6.48663C8.32031 6.73181 8.2297 6.945 8.04849 7.12622C7.86727 7.30744 7.65407 7.39805 7.40889 7.39805ZM32.289 31.4467V0.474462H34.5276V31.4467H32.289Z" fill="#E3E6FF"/>
</svg>
