<svg width="38" height="24" viewBox="0 0 38 24" fill="none" xmlns="http://www.w3.org/2000/svg">
<path d="M3.08273 23.5063C2.31466 23.5063 1.6676 23.3537 1.14152 23.0486C0.615452 22.7434 0.352417 22.291 0.352417 21.6913C0.352417 20.9864 0.704884 20.1447 1.40982 19.1662C2.12528 18.1877 3.13534 17.1355 4.43999 16.0097C5.74465 14.8839 7.28604 13.7529 9.06416 12.6166L9.6481 14.1001C8.12249 15.026 6.98618 15.9045 6.23916 16.7357C5.49214 17.5669 5.11863 18.3087 5.11863 18.961C5.11863 19.4555 5.27119 19.7974 5.57631 19.9868C5.88143 20.1657 6.2602 20.2551 6.71262 20.2551C7.2913 20.2551 8.06463 20.1289 9.0326 19.8764C10.0006 19.6133 11.1106 19.2398 12.3626 18.7558C13.6147 18.2613 14.9562 17.6669 16.3871 16.9724C17.8285 16.278 19.3068 15.4994 20.8219 14.6367C22.6421 13.6056 24.2939 12.5797 25.7775 11.5592C27.2715 10.5281 28.5499 9.54957 29.6125 8.62369C30.6857 7.6978 31.5116 6.86135 32.0903 6.11433C32.669 5.36731 32.9583 4.7518 32.9583 4.26782C32.9583 3.868 32.8058 3.55762 32.5007 3.33667C32.2061 3.11572 31.8325 3.00524 31.3801 3.00524C30.7699 3.00524 29.9913 3.14202 29.0444 3.41558C28.108 3.67862 27.0821 4.07317 25.9668 4.59924L25.1777 3.36823C27.1137 2.33713 28.9655 1.54276 30.7331 0.985129C32.5007 0.427493 33.9737 0.148675 35.1521 0.148675C35.9412 0.148675 36.5882 0.295975 37.0933 0.590575C37.5983 0.885175 37.8508 1.35338 37.8508 1.99519C37.8508 2.95264 37.209 4.14682 35.9254 5.57773C34.6418 7.00865 32.79 8.60791 30.3701 10.3755C27.9501 12.1431 25.0304 14.0212 21.611 16.0097C18.8123 17.63 16.224 18.9978 13.8462 20.1131C11.4788 21.2284 9.3798 22.0701 7.54908 22.6382C5.72887 23.2169 4.24009 23.5063 3.08273 23.5063ZM18.8175 21.8807C17.3235 21.8807 15.9189 21.6019 14.6037 21.0442C13.299 20.4761 12.1522 19.6975 11.1632 18.7085C10.1742 17.7195 9.40085 16.5726 8.84321 15.268C8.28558 13.9528 8.00676 12.5482 8.00676 11.0541C8.00676 9.5601 8.28558 8.16075 8.84321 6.85609C9.41137 5.54091 10.19 4.38881 11.179 3.3998C12.168 2.41078 13.3148 1.63746 14.6195 1.07982C15.9347 0.511664 17.334 0.227586 18.8175 0.227586C20.3116 0.227586 21.7109 0.511664 23.0156 1.07982C24.3308 1.63746 25.4829 2.41604 26.4719 3.41558C27.4609 4.40459 28.2342 5.55143 28.7918 6.85609C29.3495 8.16075 29.6283 9.5601 29.6283 11.0541C29.6283 12.5482 29.3495 13.9528 28.7918 15.268C28.2342 16.5726 27.4609 17.7195 26.4719 18.7085C25.4829 19.6975 24.3308 20.4761 23.0156 21.0442C21.7109 21.6019 20.3116 21.8807 18.8175 21.8807ZM18.8175 20.6497C20.1327 20.6497 21.369 20.4024 22.5263 19.9079C23.6837 19.4029 24.699 18.7137 25.5723 17.8405C26.4456 16.9567 27.1295 15.9361 27.624 14.7787C28.1185 13.6214 28.3657 12.3798 28.3657 11.0541C28.3657 9.73896 28.1185 8.50269 27.624 7.34533C27.1295 6.18798 26.4456 5.1674 25.5723 4.2836C24.699 3.3998 23.6837 2.71064 22.5263 2.21614C21.369 1.71111 20.1327 1.45859 18.8175 1.45859C17.5024 1.45859 16.2661 1.71111 15.1087 2.21614C13.9619 2.71064 12.9466 3.3998 12.0628 4.2836C11.1895 5.1674 10.5056 6.18798 10.0111 7.34533C9.51658 8.50269 9.26933 9.73896 9.26933 11.0541C9.26933 12.3798 9.51658 13.6214 10.0111 14.7787C10.5056 15.9361 11.1895 16.9567 12.0628 17.8405C12.936 18.7137 13.9514 19.4029 15.1087 19.9079C16.2661 20.4024 17.5024 20.6497 18.8175 20.6497Z" fill="#E3E6FF"/>
</svg>
