<svg width="72" height="76" viewBox="0 0 72 76" fill="none" xmlns="http://www.w3.org/2000/svg">
<path d="M8.82518 45.393C7.35578 45.393 6.00682 45.0317 4.77831 44.3091C3.54979 43.5864 2.5742 42.6108 1.85155 41.3823C1.12889 40.1538 0.767563 38.8048 0.767563 37.3354V8.42917C0.767563 6.93568 1.12889 5.58672 1.85155 4.38229C2.5742 3.15378 3.54979 2.17819 4.77831 1.45554C6.00682 0.73288 7.35578 0.371552 8.82518 0.371552H63.5303C65.0237 0.371552 66.3727 0.73288 67.5771 1.45554C68.8056 2.17819 69.7812 3.15378 70.5039 4.38229C71.2265 5.58672 71.5879 6.93568 71.5879 8.42917V37.3354C71.5879 38.8048 71.2265 40.1538 70.5039 41.3823C69.7812 42.6108 68.8056 43.5864 67.5771 44.3091C66.3727 45.0317 65.0237 45.393 63.5303 45.393H8.82518ZM9.00584 66.6753L9.43944 65.3745H12.9082L12.5107 66.6753H9.00584ZM9.90916 64.5073L10.415 63.2065H17.6416L17.0996 64.5073H9.90916ZM10.6318 62.3755L11.1015 61.0747H16.5576L16.0156 62.3755H10.6318ZM15.9795 66.6753L16.4492 65.3745H19.918L19.5205 66.6753H15.9795ZM11.4267 60.2075L11.8603 59.0874H15.4014L14.9316 60.2075H11.4267ZM19.1592 64.5073L19.7012 63.2065H23.206L22.664 64.5073H19.1592ZM18.039 62.3755L18.581 61.0747H22.1582L21.6523 62.3755H18.039ZM17.1719 60.2075L17.5332 59.0874H21.1826L20.7129 60.2075H17.1719ZM2.97166 75.5278V69.5659H5.60936V73.143H66.7461V69.5659H69.3838V75.5278H2.97166ZM26.0244 64.5073L26.4941 63.2065H29.8906L29.6015 64.5073H26.0244ZM24.4707 62.3755L25.0127 61.0747H28.4453L28.0117 62.3755H24.4707ZM22.5918 60.2075L23.0976 59.0874H26.6025L26.1689 60.2075H22.5918ZM23.748 66.6753L24.29 65.3745H47.9931L48.5351 66.6753H23.748ZM28.0478 60.2075L28.5537 59.0874H31.9502L31.5527 60.2075H28.0478ZM30.1797 62.3755L30.5049 61.0747H33.9375L33.7207 62.3755H30.1797ZM32.5644 64.5073L32.8174 63.2065H36.0332L36.1055 64.5073H32.5644ZM2.97166 70.4692V68.3374L8.49998 55.2934H63.8555L69.3838 68.3374V70.4692H2.97166ZM6.04295 68.0844H66.3125L62.1572 57.6782H10.2705L6.04295 68.0844ZM33.3232 60.2075L33.6484 59.0874H36.6113L36.9365 60.2075H33.3232ZM35.4551 62.3755L35.5996 61.0747H38.5625L38.9599 62.3755H35.4551ZM39.4658 64.5073L39.1406 63.2065H42.5371L42.9707 64.5073H39.4658ZM40.6582 62.3755L40.2246 61.0747H43.5849L44.1631 62.3755H40.6582ZM38.8154 60.2075L38.418 59.0874H41.8144L42.3203 60.2075H38.8154ZM27.9394 51.5717V44.2368H30.8301V51.5717H27.9394ZM45.2471 64.5073L44.7051 63.2065H48.2461L48.8242 64.5073H45.2471ZM22.8086 52.6196V49.729H49.5469V52.6196H22.8086ZM44.3799 60.2075L43.7656 59.0874H47.2705L47.9209 60.2075H44.3799ZM46.5478 62.3755L45.9697 61.0747H49.5469L50.0527 62.3755H46.5478ZM53.0156 66.6753L52.3652 65.3745H55.834L56.4844 66.6753H53.0156ZM49.7637 60.2075L49.1855 59.0874H52.7265L53.3408 60.2075H49.7637ZM52.04 62.3755L51.3896 61.0747H54.8584L55.5088 62.3755H52.04ZM51.4619 64.5073L50.8838 63.2065H61.9404L62.4463 64.5073H51.4619ZM41.5254 51.5717V44.2368H44.416V51.5717H41.5254ZM59.8447 66.6753L59.1943 65.3745H62.916L63.3496 66.6753H59.8447ZM58.0019 62.3755L57.3515 61.0747H61.2539L61.7236 62.3755H58.0019ZM55.2197 60.2075L54.6777 59.0874H60.4951L60.9287 60.2075H55.2197ZM8.82518 42.5024H63.5303C64.9515 42.5024 66.168 41.9966 67.1797 40.9848C68.1914 39.9731 68.6973 38.7566 68.6973 37.3354V8.42917C68.6973 7.00794 68.1914 5.79147 67.1797 4.77975C66.168 3.76804 64.9515 3.26218 63.5303 3.26218H8.82518C7.40396 3.26218 6.18748 3.76804 5.17577 4.77975C4.16405 5.79147 3.65819 7.00794 3.65819 8.42917V37.3354C3.65819 38.7566 4.16405 39.9731 5.17577 40.9848C6.18748 41.9966 7.40396 42.5024 8.82518 42.5024ZM9.43944 38.1665C9.05402 38.1665 8.71678 38.0219 8.42772 37.7329C8.13866 37.4438 7.99413 37.1066 7.99413 36.7212V9.04343C7.99413 8.63392 8.13866 8.29668 8.42772 8.03171C8.71678 7.74265 9.05402 7.59811 9.43944 7.59811H62.916C63.3255 7.59811 63.6627 7.74265 63.9277 8.03171C64.2168 8.29668 64.3613 8.63392 64.3613 9.04343V36.7934C64.3613 37.1788 64.2168 37.504 63.9277 37.769C63.6627 38.034 63.3255 38.1665 62.916 38.1665H9.43944Z" fill="#E3E6FF"/>
</svg>
